<svg xmlns="http://www.w3.org/2000/svg" xmlns:xlink="http://www.w3.org/1999/xlink" width="319" zoomAndPan="magnify" viewBox="0 0 239.25 138.750001" height="185" preserveAspectRatio="xMidYMid meet" version="1.0"><defs><g/><clipPath id="780b2e659e"><path d="M 3 45 L 39 45 L 39 93 L 3 93 Z M 3 45 " clip-rule="nonzero"/></clipPath><clipPath id="834c6b0e6b"><path d="M 26.53125 41.976562 L 41.964844 51.058594 L 15.421875 96.15625 L -0.0117188 87.070312 Z M 26.53125 41.976562 " clip-rule="nonzero"/></clipPath><clipPath id="883cc8ee5c"><path d="M 34.246094 46.519531 C 36.292969 47.722656 37.777344 49.691406 38.375 51.992188 C 38.96875 54.289062 38.625 56.730469 37.421875 58.777344 L 19.972656 88.417969 C 18.769531 90.464844 16.800781 91.949219 14.503906 92.542969 C 12.203125 93.140625 9.761719 92.796875 7.714844 91.59375 C 5.667969 90.386719 4.183594 88.417969 3.589844 86.121094 C 2.992188 83.820312 3.335938 81.378906 4.539062 79.332031 L 21.988281 49.691406 C 23.195312 47.644531 25.160156 46.160156 27.460938 45.566406 C 29.757812 44.972656 32.199219 45.3125 34.246094 46.519531 Z M 34.246094 46.519531 " clip-rule="nonzero"/></clipPath><clipPath id="7a6f0dd9fd"><path d="M 0 0 L 35.996094 0 L 35.996094 48 L 0 48 Z M 0 0 " clip-rule="nonzero"/></clipPath><clipPath id="710baa05d2"><path d="M 23.53125 -3.023438 L 38.964844 6.058594 L 12.421875 51.15625 L -3.011719 42.070312 Z M 23.53125 -3.023438 " clip-rule="nonzero"/></clipPath><clipPath id="a5be706ce6"><path d="M 31.246094 1.519531 C 33.292969 2.722656 34.777344 4.691406 35.375 6.992188 C 35.96875 9.289062 35.625 11.730469 34.421875 13.777344 L 16.972656 43.417969 C 15.769531 45.464844 13.800781 46.949219 11.503906 47.542969 C 9.203125 48.140625 6.761719 47.796875 4.714844 46.59375 C 2.667969 45.386719 1.183594 43.417969 0.589844 41.121094 C -0.0078125 38.820312 0.335938 36.378906 1.539062 34.332031 L 18.988281 4.691406 C 20.195312 2.644531 22.160156 1.160156 24.460938 0.566406 C 26.757812 -0.0273438 29.199219 0.3125 31.246094 1.519531 Z M 31.246094 1.519531 " clip-rule="nonzero"/></clipPath><clipPath id="bdce4c714c"><rect x="0" width="36" y="0" height="48"/></clipPath><clipPath id="712408730c"><path d="M 28 45 L 65 45 L 65 93 L 28 93 Z M 28 45 " clip-rule="nonzero"/></clipPath><clipPath id="6134560aa0"><path d="M 52.148438 41.976562 L 67.582031 51.058594 L 41.035156 96.15625 L 25.601562 87.070312 Z M 52.148438 41.976562 " clip-rule="nonzero"/></clipPath><clipPath id="046dc33a7e"><path d="M 59.863281 46.519531 C 61.910156 47.722656 63.394531 49.691406 63.988281 51.992188 C 64.585938 54.289062 64.242188 56.730469 63.039062 58.777344 L 45.589844 88.417969 C 44.386719 90.464844 42.417969 91.949219 40.117188 92.542969 C 37.820312 93.140625 35.378906 92.796875 33.332031 91.59375 C 31.285156 90.386719 29.800781 88.417969 29.207031 86.121094 C 28.609375 83.820312 28.953125 81.378906 30.15625 79.332031 L 47.605469 49.691406 C 48.808594 47.644531 50.777344 46.160156 53.078125 45.566406 C 55.375 44.972656 57.816406 45.3125 59.863281 46.519531 Z M 59.863281 46.519531 " clip-rule="nonzero"/></clipPath><clipPath id="56c5e6db6c"><path d="M 0.472656 0 L 36.597656 0 L 36.597656 48 L 0.472656 48 Z M 0.472656 0 " clip-rule="nonzero"/></clipPath><clipPath id="260097fc5a"><path d="M 24.148438 -3.023438 L 39.582031 6.058594 L 13.035156 51.15625 L -2.398438 42.070312 Z M 24.148438 -3.023438 " clip-rule="nonzero"/></clipPath><clipPath id="acb0e95fed"><path d="M 31.863281 1.519531 C 33.910156 2.722656 35.394531 4.691406 35.988281 6.992188 C 36.585938 9.289062 36.242188 11.730469 35.039062 13.777344 L 17.589844 43.417969 C 16.386719 45.464844 14.417969 46.949219 12.117188 47.542969 C 9.820312 48.140625 7.378906 47.796875 5.332031 46.59375 C 3.285156 45.386719 1.800781 43.417969 1.207031 41.121094 C 0.609375 38.820312 0.953125 36.378906 2.15625 34.332031 L 19.605469 4.691406 C 20.808594 2.644531 22.777344 1.160156 25.078125 0.566406 C 27.375 -0.0273438 29.816406 0.3125 31.863281 1.519531 Z M 31.863281 1.519531 " clip-rule="nonzero"/></clipPath><clipPath id="7c3aac9e13"><rect x="0" width="37" y="0" height="48"/></clipPath></defs><g clip-path="url(#780b2e659e)"><g clip-path="url(#834c6b0e6b)"><g clip-path="url(#883cc8ee5c)"><g transform="matrix(1, 0, 0, 1, 3, 45)"><g clip-path="url(#bdce4c714c)"><g clip-path="url(#7a6f0dd9fd)"><g clip-path="url(#710baa05d2)"><g clip-path="url(#a5be706ce6)"><path fill="#2563eb" d="M 23.53125 -3.023438 L 38.964844 6.058594 L 12.421875 51.15625 L -3.011719 42.070312 Z M 23.53125 -3.023438 " fill-opacity="1" fill-rule="nonzero"/></g></g></g></g></g></g></g></g><g clip-path="url(#712408730c)"><g clip-path="url(#6134560aa0)"><g clip-path="url(#046dc33a7e)"><g transform="matrix(1, 0, 0, 1, 28, 45)"><g clip-path="url(#7c3aac9e13)"><g clip-path="url(#56c5e6db6c)"><g clip-path="url(#260097fc5a)"><g clip-path="url(#acb0e95fed)"><path fill="#2563eb" d="M 24.148438 -3.023438 L 39.582031 6.058594 L 13.035156 51.15625 L -2.398438 42.070312 Z M 24.148438 -3.023438 " fill-opacity="1" fill-rule="nonzero"/></g></g></g></g></g></g></g></g><g fill="#2563eb" fill-opacity="1"><g transform="translate(65.798537, 91.108641)"><g><path d="M 12.734375 0 L 0.0625 -32.71875 L 7.4375 -32.71875 L 16.546875 -6.953125 L 25.515625 -32.71875 L 32.59375 -32.71875 L 20.046875 0 Z M 12.734375 0 "/></g></g></g><g fill="#2563eb" fill-opacity="1"><g transform="translate(94.515901, 91.108641)"><g><path d="M 5.234375 0 L 5.234375 -32.71875 L 12.234375 -32.71875 L 12.234375 0 Z M 8.71875 -46.375 C 9.914062 -46.375 10.898438 -45.972656 11.671875 -45.171875 C 12.453125 -44.367188 12.84375 -43.332031 12.84375 -42.0625 C 12.84375 -40.832031 12.453125 -39.804688 11.671875 -38.984375 C 10.898438 -38.171875 9.914062 -37.765625 8.71875 -37.765625 C 7.53125 -37.765625 6.546875 -38.171875 5.765625 -38.984375 C 4.992188 -39.804688 4.609375 -40.832031 4.609375 -42.0625 C 4.609375 -43.332031 4.992188 -44.367188 5.765625 -45.171875 C 6.546875 -45.972656 7.53125 -46.375 8.71875 -46.375 Z M 8.71875 -46.375 "/></g></g></g><g fill="#2563eb" fill-opacity="1"><g transform="translate(108.413025, 91.108641)"><g><path d="M 3.328125 -26.9375 L 3.328125 -32.71875 L 30.203125 -32.65625 L 30.203125 -27.921875 L 11.5 -5.78125 L 30.75 -5.71875 L 30.75 0.0625 L 2.765625 0 L 2.765625 -4.796875 L 21.46875 -26.9375 Z M 3.328125 -26.9375 "/></g></g></g><g fill="#2563eb" fill-opacity="1"><g transform="translate(137.868336, 91.108641)"><g><path d="M 18.078125 4.484375 C 17.054688 7.066406 15.640625 9.003906 13.828125 10.296875 C 12.023438 11.585938 9.894531 12.234375 7.4375 12.234375 C 5.96875 12.234375 4.625 12.007812 3.40625 11.5625 C 2.195312 11.113281 1.019531 10.414062 -0.125 9.46875 L 2.890625 4 C 3.671875 4.570312 4.390625 4.976562 5.046875 5.21875 C 5.703125 5.46875 6.398438 5.59375 7.140625 5.59375 C 9.347656 5.59375 11.003906 4.382812 12.109375 1.96875 L 13.21875 -0.484375 L -0.3125 -32.71875 L 7.015625 -32.71875 L 16.796875 -7.9375 L 25.890625 -32.71875 L 32.96875 -32.71875 Z M 18.078125 4.484375 "/></g></g></g><g fill="#2563eb" fill-opacity="1"><g transform="translate(167.323694, 91.108641)"><g><path d="M 24.359375 -32.96875 C 28.171875 -32.96875 31.148438 -31.847656 33.296875 -29.609375 C 35.453125 -27.378906 36.53125 -24.296875 36.53125 -20.359375 L 36.53125 0 L 29.453125 0 L 29.453125 -18.390625 C 29.453125 -20.847656 28.753906 -22.785156 27.359375 -24.203125 C 25.972656 -25.617188 24.050781 -26.328125 21.59375 -26.328125 C 18.96875 -26.285156 16.820312 -25.441406 15.15625 -23.796875 C 13.5 -22.160156 12.546875 -20.03125 12.296875 -17.40625 L 12.296875 0 L 5.234375 0 L 5.234375 -32.71875 L 12.296875 -32.71875 L 12.296875 -26.4375 C 14.515625 -30.789062 18.535156 -32.96875 24.359375 -32.96875 Z M 24.359375 -32.96875 "/></g></g></g></svg>