<svg xmlns="http://www.w3.org/2000/svg" xmlns:xlink="http://www.w3.org/1999/xlink" width="319" zoomAndPan="magnify" viewBox="0 0 239.25 138.750001" height="185" preserveAspectRatio="xMidYMid meet" version="1.0"><defs><g/><clipPath id="5762fb8222"><path d="M 3 45 L 39 45 L 39 93 L 3 93 Z M 3 45 " clip-rule="nonzero"/></clipPath><clipPath id="62c218c15e"><path d="M 26.53125 41.945312 L 41.964844 51.027344 L 15.421875 96.121094 L -0.0117188 87.039062 Z M 26.53125 41.945312 " clip-rule="nonzero"/></clipPath><clipPath id="91d19c213e"><path d="M 34.246094 46.488281 C 36.292969 47.691406 37.777344 49.660156 38.375 51.957031 C 38.96875 54.257812 38.625 56.699219 37.421875 58.746094 L 19.972656 88.386719 C 18.769531 90.433594 16.800781 91.917969 14.503906 92.511719 C 12.203125 93.109375 9.761719 92.765625 7.714844 91.5625 C 5.667969 90.355469 4.183594 88.386719 3.589844 86.089844 C 2.992188 83.789062 3.335938 81.347656 4.539062 79.300781 L 21.988281 49.660156 C 23.195312 47.613281 25.160156 46.128906 27.460938 45.535156 C 29.757812 44.9375 32.199219 45.28125 34.246094 46.488281 Z M 34.246094 46.488281 " clip-rule="nonzero"/></clipPath><clipPath id="9cf564b39a"><path d="M 0 0 L 35.996094 0 L 35.996094 48 L 0 48 Z M 0 0 " clip-rule="nonzero"/></clipPath><clipPath id="99401a5cab"><path d="M 23.53125 -3.054688 L 38.964844 6.027344 L 12.421875 51.121094 L -3.011719 42.039062 Z M 23.53125 -3.054688 " clip-rule="nonzero"/></clipPath><clipPath id="92b5e51b98"><path d="M 31.246094 1.488281 C 33.292969 2.691406 34.777344 4.660156 35.375 6.957031 C 35.96875 9.257812 35.625 11.699219 34.421875 13.746094 L 16.972656 43.386719 C 15.769531 45.433594 13.800781 46.917969 11.503906 47.511719 C 9.203125 48.109375 6.761719 47.765625 4.714844 46.5625 C 2.667969 45.355469 1.183594 43.386719 0.589844 41.089844 C -0.0078125 38.789062 0.335938 36.347656 1.539062 34.300781 L 18.988281 4.660156 C 20.195312 2.613281 22.160156 1.128906 24.460938 0.535156 C 26.757812 -0.0625 29.199219 0.28125 31.246094 1.488281 Z M 31.246094 1.488281 " clip-rule="nonzero"/></clipPath><clipPath id="d1067493f3"><rect x="0" width="36" y="0" height="48"/></clipPath><clipPath id="030f9d489a"><path d="M 28 45 L 65 45 L 65 93 L 28 93 Z M 28 45 " clip-rule="nonzero"/></clipPath><clipPath id="9e5d36e51e"><path d="M 52.148438 41.945312 L 67.582031 51.027344 L 41.035156 96.121094 L 25.601562 87.039062 Z M 52.148438 41.945312 " clip-rule="nonzero"/></clipPath><clipPath id="9120cf522b"><path d="M 59.863281 46.488281 C 61.910156 47.691406 63.394531 49.660156 63.988281 51.957031 C 64.585938 54.257812 64.242188 56.699219 63.039062 58.746094 L 45.589844 88.386719 C 44.386719 90.433594 42.417969 91.917969 40.117188 92.511719 C 37.820312 93.109375 35.378906 92.765625 33.332031 91.5625 C 31.285156 90.355469 29.800781 88.386719 29.207031 86.089844 C 28.609375 83.789062 28.953125 81.347656 30.15625 79.300781 L 47.605469 49.660156 C 48.808594 47.613281 50.777344 46.128906 53.078125 45.535156 C 55.375 44.9375 57.816406 45.28125 59.863281 46.488281 Z M 59.863281 46.488281 " clip-rule="nonzero"/></clipPath><clipPath id="72ca4fd14f"><path d="M 0.472656 0 L 36.597656 0 L 36.597656 48 L 0.472656 48 Z M 0.472656 0 " clip-rule="nonzero"/></clipPath><clipPath id="1d5fd41eac"><path d="M 24.148438 -3.054688 L 39.582031 6.027344 L 13.035156 51.121094 L -2.398438 42.039062 Z M 24.148438 -3.054688 " clip-rule="nonzero"/></clipPath><clipPath id="0d5b1f3617"><path d="M 31.863281 1.488281 C 33.910156 2.691406 35.394531 4.660156 35.988281 6.957031 C 36.585938 9.257812 36.242188 11.699219 35.039062 13.746094 L 17.589844 43.386719 C 16.386719 45.433594 14.417969 46.917969 12.117188 47.511719 C 9.820312 48.109375 7.378906 47.765625 5.332031 46.5625 C 3.285156 45.355469 1.800781 43.386719 1.207031 41.089844 C 0.609375 38.789062 0.953125 36.347656 2.15625 34.300781 L 19.605469 4.660156 C 20.808594 2.613281 22.777344 1.128906 25.078125 0.535156 C 27.375 -0.0625 29.816406 0.28125 31.863281 1.488281 Z M 31.863281 1.488281 " clip-rule="nonzero"/></clipPath><clipPath id="5613e81d94"><rect x="0" width="37" y="0" height="48"/></clipPath></defs><g fill="#2e3487" fill-opacity="1"><g transform="translate(67.582244, 91.076825)"><g><path d="M 12.71875 0 L 0.0625 -32.6875 L 7.4375 -32.6875 L 16.53125 -6.9375 L 25.5 -32.6875 L 32.5625 -32.6875 L 20.03125 0 Z M 12.71875 0 "/></g></g></g><g fill="#2e3487" fill-opacity="1"><g transform="translate(96.277715, 91.076825)"><g><path d="M 5.21875 0 L 5.21875 -32.6875 L 12.234375 -32.6875 L 12.234375 0 Z M 8.734375 -46.328125 C 9.921875 -46.328125 10.898438 -45.925781 11.671875 -45.125 C 12.453125 -44.332031 12.84375 -43.300781 12.84375 -42.03125 C 12.84375 -40.800781 12.453125 -39.773438 11.671875 -38.953125 C 10.898438 -38.140625 9.921875 -37.734375 8.734375 -37.734375 C 7.546875 -37.734375 6.5625 -38.140625 5.78125 -38.953125 C 5 -39.773438 4.609375 -40.800781 4.609375 -42.03125 C 4.609375 -43.300781 5 -44.332031 5.78125 -45.125 C 6.5625 -45.925781 7.546875 -46.328125 8.734375 -46.328125 Z M 8.734375 -46.328125 "/></g></g></g><g fill="#2e3487" fill-opacity="1"><g transform="translate(110.16424, 91.076825)"><g><path d="M 3.3125 -26.921875 L 3.3125 -32.6875 L 30.171875 -32.625 L 30.171875 -27.90625 L 11.484375 -5.78125 L 30.71875 -5.71875 L 30.71875 0.0625 L 2.765625 0 L 2.765625 -4.796875 L 21.453125 -26.921875 Z M 3.3125 -26.921875 "/></g></g></g><g fill="#2e3487" fill-opacity="1"><g transform="translate(139.597089, 91.076825)"><g><path d="M 18.0625 4.484375 C 17.039062 7.066406 15.628906 9.003906 13.828125 10.296875 C 12.023438 11.585938 9.894531 12.234375 7.4375 12.234375 C 5.957031 12.234375 4.613281 12.003906 3.40625 11.546875 C 2.195312 11.097656 1.019531 10.40625 -0.125 9.46875 L 2.890625 4 C 3.671875 4.570312 4.382812 4.976562 5.03125 5.21875 C 5.6875 5.46875 6.382812 5.59375 7.125 5.59375 C 9.34375 5.59375 11.003906 4.382812 12.109375 1.96875 L 13.21875 -0.484375 L -0.3125 -32.6875 L 7 -32.6875 L 16.78125 -7.921875 L 25.875 -32.6875 L 32.9375 -32.6875 Z M 18.0625 4.484375 "/></g></g></g><g fill="#2e3487" fill-opacity="1"><g transform="translate(168.661244, 91.076825)"><g><path d="M 24.328125 -32.9375 C 28.140625 -32.9375 31.117188 -31.816406 33.265625 -29.578125 C 35.421875 -27.347656 36.5 -24.269531 36.5 -20.34375 L 36.5 0 L 29.4375 0 L 29.4375 -18.375 C 29.4375 -20.832031 28.738281 -22.765625 27.34375 -24.171875 C 25.945312 -25.585938 24.019531 -26.296875 21.5625 -26.296875 C 18.945312 -26.253906 16.804688 -25.414062 15.140625 -23.78125 C 13.484375 -22.144531 12.535156 -20.015625 12.296875 -17.390625 L 12.296875 0 L 5.21875 0 L 5.21875 -32.6875 L 12.296875 -32.6875 L 12.296875 -26.421875 C 14.503906 -30.765625 18.515625 -32.9375 24.328125 -32.9375 Z M 24.328125 -32.9375 "/></g></g></g><g clip-path="url(#5762fb8222)"><g clip-path="url(#62c218c15e)"><g clip-path="url(#91d19c213e)"><g transform="matrix(1, 0, 0, 1, 3, 45)"><g clip-path="url(#d1067493f3)"><g clip-path="url(#9cf564b39a)"><g clip-path="url(#99401a5cab)"><g clip-path="url(#92b5e51b98)"><path fill="#2e3487" d="M 23.53125 -3.054688 L 38.964844 6.027344 L 12.421875 51.121094 L -3.011719 42.039062 Z M 23.53125 -3.054688 " fill-opacity="1" fill-rule="nonzero"/></g></g></g></g></g></g></g></g><g clip-path="url(#030f9d489a)"><g clip-path="url(#9e5d36e51e)"><g clip-path="url(#9120cf522b)"><g transform="matrix(1, 0, 0, 1, 28, 45)"><g clip-path="url(#5613e81d94)"><g clip-path="url(#72ca4fd14f)"><g clip-path="url(#1d5fd41eac)"><g clip-path="url(#0d5b1f3617)"><path fill="#2e3487" d="M 24.148438 -3.054688 L 39.582031 6.027344 L 13.035156 51.121094 L -2.398438 42.039062 Z M 24.148438 -3.054688 " fill-opacity="1" fill-rule="nonzero"/></g></g></g></g></g></g></g></g></svg>